<svg width="99" height="100" viewBox="0 0 99 100" fill="none" xmlns="http://www.w3.org/2000/svg">
<mask id="mask0_279_1456" style="mask-type:luminance" maskUnits="userSpaceOnUse" x="0" y="0" width="99" height="100">
<path d="M0.883789 0.980469H98.9209V99.0176H0.883789V0.980469Z" fill="white"/>
</mask>
<g mask="url(#mask0_279_1456)">
<path fill-rule="evenodd" clip-rule="evenodd" d="M49.9023 11.7646C49.9023 5.80867 54.7305 0.980469 60.6864 0.980469H88.1368C94.0927 0.980469 98.9209 5.80866 98.9209 11.7646V39.5676C98.9209 45.5235 94.0927 50.3515 88.1368 50.3515H60.6864C54.7305 50.3515 49.9023 55.1798 49.9023 61.1356V88.2335C49.9023 94.1893 45.074 99.0176 39.1183 99.0176H11.6679C5.71211 99.0176 0.883787 94.1893 0.883787 88.2335V60.4302C0.883787 54.4744 5.71211 49.6463 11.6679 49.6463H39.1183C45.074 49.6463 49.9023 44.8182 49.9023 38.8623V11.7646Z" fill="#F4FFC4"/>
</g>
</svg>
