<svg width="123" height="101" viewBox="0 0 123 101" fill="none" xmlns="http://www.w3.org/2000/svg">
<g clip-path="url(#clip0_84_2941)">
<path fill-rule="evenodd" clip-rule="evenodd" d="M61.3785 72.0729C86.4786 72.0729 108.258 56.0706 119.101 46.4299C123.47 42.5456 123.47 36.0546 119.101 32.1703C108.258 22.5296 86.4786 6.52734 61.3785 6.52734C36.2784 6.52734 14.4991 22.5296 3.6556 32.1703C-0.713329 36.0546 -0.713323 42.5456 3.65561 46.4299C14.4991 56.0706 36.2784 72.0729 61.3785 72.0729ZM61.3785 62.1648C74.0565 62.1648 84.3338 51.9281 84.3338 39.3C84.3338 26.6722 74.0565 16.4353 61.3785 16.4353C48.7007 16.4353 38.4234 26.6722 38.4234 39.3C38.4234 51.9281 48.7007 62.1648 61.3785 62.1648Z" fill="#F4FFC4"/>
</g>
<defs>
<clipPath id="clip0_84_2941">
<rect width="122" height="100" fill="white" transform="translate(0.166992 0.601562)"/>
</clipPath>
</defs>
</svg>
